<svg width="24" height="24" fill="none" xmlns="http://www.w3.org/2000/svg"><path fill-rule="evenodd" clip-rule="evenodd" d="M24 12c0 6.6274-5.3726 12-12 12S0 18.6274 0 12 5.3726 0 12 0s12 5.3726 12 12Zm-9.5268-5.964C13.8336 6.006 13.6302 6 12 6c-1.6302 0-1.8336.0078-2.4732.036-.6396.03-1.074.1302-1.4568.279a2.9383 2.9383 0 0 0-1.0632.6918A2.928 2.928 0 0 0 6.315 8.07c-.1488.3828-.249.8172-.279 1.4568C6.006 10.1664 6 10.3698 6 12c0 1.6302.0078 1.8336.036 2.4732.03.639.1302 1.0746.279 1.4568.1506.4005.3866.7633.6918 1.0632a2.9334 2.9334 0 0 0 1.0632.6918c.3828.1482.8178.249 1.4568.279.6396.03.843.036 2.4732.036 1.6302 0 1.8336-.0078 2.4732-.036.639-.03 1.0746-.1308 1.4568-.279a2.948 2.948 0 0 0 1.0632-.6918 2.929 2.929 0 0 0 .6918-1.0632c.1482-.3828.249-.8178.279-1.4568.03-.6396.036-.843.036-2.4732 0-1.6302-.0078-1.8336-.036-2.4732-.03-.639-.1308-1.0746-.279-1.4568a2.9444 2.9444 0 0 0-.6918-1.0632c-.3336-.333-.6672-.5394-1.0632-.6918-.3828-.1488-.8178-.249-1.4568-.279ZM9.8787 9.8787a3.0001 3.0001 0 1 1 4.2427 4.2428 3.0001 3.0001 0 0 1-4.2427-4.2428Zm5.8016-1.559A.7498.7498 0 0 1 15.15 9.6a.7499.7499 0 0 1-.5303-1.2803.7499.7499 0 0 1 1.0606 0Zm-2.4075 2.4075a1.8 1.8 0 1 0-2.5455 2.5454 1.8 1.8 0 0 0 2.5455-2.5454Z" fill="#FCFCFC"/></svg>